<svg width="25" height="24" viewBox="0 0 25 24" fill="none" xmlns="http://www.w3.org/2000/svg">
<g clip-path="url(#clip0_2200_169)">
<path d="M15.675 13C16.425 13 17.085 12.59 17.425 11.97L21.005 5.48C21.375 4.82 20.895 4 20.135 4H5.335L4.395 2H1.125V4H3.125L6.725 11.59L5.375 14.03C4.645 15.37 5.605 17 7.125 17H19.125V15H7.125L8.225 13H15.675ZM6.285 6H18.435L15.675 11H8.655L6.285 6ZM7.125 18C6.025 18 5.135 18.9 5.135 20C5.135 21.1 6.025 22 7.125 22C8.225 22 9.125 21.1 9.125 20C9.125 18.9 8.225 18 7.125 18ZM17.125 18C16.025 18 15.135 18.9 15.135 20C15.135 21.1 16.025 22 17.125 22C18.225 22 19.125 21.1 19.125 20C19.125 18.9 18.225 18 17.125 18Z" fill="white"/>
</g>
<defs>
<clipPath id="clip0_2200_169">
<rect width="24" height="24" fill="white" transform="translate(0.125)"/>
</clipPath>
</defs>
</svg>
